HIERARCHY
ROOT Hip
{
	OFFSET	0.0000	0.0000	0.0000
	CHANNELS 6 Xposition Yposition Zposition Xrotation Yrotation Zrotation
	JOINT LowerSpine
	{
		OFFSET	0.0000	8.3155	-4.4999
		CHANNELS 3 Xrotation Yrotation Zrotation
		JOINT MiddleSpine
		{
			OFFSET	0.0000	7.5885	0.3964
			CHANNELS 3 Xrotation Yrotation Zrotation
			JOINT Chest
			{
				OFFSET	0.0000	9.3899	-2.0901
				CHANNELS 3 Xrotation Yrotation Zrotation
				JOINT Neck
				{
					OFFSET	0.0000	21.1598	-0.4401
					CHANNELS 3 Xrotation Yrotation Zrotation
					JOINT Head
					{
						OFFSET	0.0000	11.9492	3.2502
						CHANNELS 3 Xrotation Yrotation Zrotation
						End Site
						{
							OFFSET	0.0001	16.6961	0.4984
						}
					}
				}
				JOINT LClavicle
				{
					OFFSET	2.1363	20.4203	6.9961
					CHANNELS 3 Xrotation Yrotation Zrotation
					JOINT LShoulder
					{
						OFFSET	12.4803	2.9290	-4.7394
						CHANNELS 3 Xrotation Yrotation Zrotation
						JOINT LForearm
						{
							OFFSET	26.5107	-0.0942	-0.2297
							CHANNELS 3 Xrotation Yrotation Zrotation
							JOINT LHand
							{
								OFFSET	22.1155	0.0642	-0.1324
								CHANNELS 3 Xrotation Yrotation Zrotation
								JOINT LFinger1
								{
									OFFSET	8.5713	0.7496	2.3806
									CHANNELS 3 Xrotation Yrotation Zrotation
									JOINT LFinger11
									{
										OFFSET	3.2061	-0.7818	0.5649
										CHANNELS 3 Xrotation Yrotation Zrotation
										JOINT LFinger12
										{
											OFFSET	2.1887	-0.5340	0.3858
											CHANNELS 3 Xrotation Yrotation Zrotation
											End Site
											{
												OFFSET	1.5575	-0.4649	0.2526
											}
										}
									}
								}
								JOINT LFinger2
								{
									OFFSET	8.6993	0.8657	0.2073
									CHANNELS 3 Xrotation Yrotation Zrotation
									JOINT LFinger21
									{
										OFFSET	3.9642	0.0111	-0.0234
										CHANNELS 3 Xrotation Yrotation Zrotation
										JOINT LFinger22
										{
											OFFSET	2.1972	0.0067	-0.0134
											CHANNELS 3 Xrotation Yrotation Zrotation
											End Site
											{
												OFFSET	1.9736	-0.1394	0.0027
											}
										}
									}
								}
								JOINT LFinger3
								{
									OFFSET	8.2443	0.5776	-1.9504
									CHANNELS 3 Xrotation Yrotation Zrotation
									JOINT LFinger31
									{
										OFFSET	3.5971	-0.1821	-0.2252
										CHANNELS 3 Xrotation Yrotation Zrotation
										JOINT LFinger32
										{
											OFFSET	2.0497	-0.1031	-0.1288
											CHANNELS 3 Xrotation Yrotation Zrotation
											End Site
											{
												OFFSET	1.8124	-0.2228	-0.0857
											}
										}
									}
								}
								JOINT LFinger4
								{
									OFFSET	7.6504	-0.5814	-3.3685
									CHANNELS 3 Xrotation Yrotation Zrotation
									JOINT LFinger41
									{
										OFFSET	2.2125	-0.4614	-0.6108
										CHANNELS 3 Xrotation Yrotation Zrotation
										JOINT LFinger42
										{
											OFFSET	1.6225	-0.3379	-0.4481
											CHANNELS 3 Xrotation Yrotation Zrotation
											End Site
											{
												OFFSET	1.4401	-0.3957	-0.3304
											}
										}
									}
								}
								JOINT LFinger0
								{
									OFFSET	1.7730	-1.3420	1.3441
									CHANNELS 3 Xrotation Yrotation Zrotation
									JOINT LFinger01
									{
										OFFSET	3.3012	-1.0843	2.4890
										CHANNELS 3 Xrotation Yrotation Zrotation
										JOINT LFinger02
										{
											OFFSET	2.1738	-0.7778	1.5662
											CHANNELS 3 Xrotation Yrotation Zrotation
											End Site
											{
												OFFSET	1.5985	-0.5503	1.0946
											}
										}
									}
								}
							}
						}
					}
				}
				JOINT RClavicle
				{
					OFFSET	-2.1363	20.4203	6.9961
					CHANNELS 3 Xrotation Yrotation Zrotation
					JOINT RShoulder
					{
						OFFSET	-12.4825	2.9295	-4.7402
						CHANNELS 3 Xrotation Yrotation Zrotation
						JOINT RForearm
						{
							OFFSET	-26.5107	-0.0941	-0.2297
							CHANNELS 3 Xrotation Yrotation Zrotation
							JOINT RHand
							{
								OFFSET	-22.1155	0.0642	-0.1324
								CHANNELS 3 Xrotation Yrotation Zrotation
								JOINT RFinger1
								{
									OFFSET	-8.5713	0.7496	2.3806
									CHANNELS 3 Xrotation Yrotation Zrotation
									JOINT RFinger11
									{
										OFFSET	-3.2061	-0.7818	0.5649
										CHANNELS 3 Xrotation Yrotation Zrotation
										JOINT RFinger12
										{
											OFFSET	-2.1887	-0.5340	0.3858
											CHANNELS 3 Xrotation Yrotation Zrotation
											End Site
											{
												OFFSET	-1.5575	-0.4649	0.2526
											}
										}
									}
								}
								JOINT RFinger2
								{
									OFFSET	-8.6993	0.8657	0.2073
									CHANNELS 3 Xrotation Yrotation Zrotation
									JOINT RFinger21
									{
										OFFSET	-3.9642	0.0111	-0.0234
										CHANNELS 3 Xrotation Yrotation Zrotation
										JOINT RFinger22
										{
											OFFSET	-2.1972	0.0067	-0.0134
											CHANNELS 3 Xrotation Yrotation Zrotation
											End Site
											{
												OFFSET	-1.9736	-0.1394	0.0027
											}
										}
									}
								}
								JOINT RFinger3
								{
									OFFSET	-8.2443	0.5776	-1.9504
									CHANNELS 3 Xrotation Yrotation Zrotation
									JOINT RFinger31
									{
										OFFSET	-3.5971	-0.1821	-0.2252
										CHANNELS 3 Xrotation Yrotation Zrotation
										JOINT RFinger32
										{
											OFFSET	-2.0497	-0.1031	-0.1288
											CHANNELS 3 Xrotation Yrotation Zrotation
											End Site
											{
												OFFSET	-1.8124	-0.2228	-0.0857
											}
										}
									}
								}
								JOINT RFinger4
								{
									OFFSET	-7.6504	-0.5814	-3.3685
									CHANNELS 3 Xrotation Yrotation Zrotation
									JOINT RFinger41
									{
										OFFSET	-2.2125	-0.4614	-0.6108
										CHANNELS 3 Xrotation Yrotation Zrotation
										JOINT RFinger42
										{
											OFFSET	-1.6225	-0.3379	-0.4481
											CHANNELS 3 Xrotation Yrotation Zrotation
											End Site
											{
												OFFSET	-1.4401	-0.3957	-0.3304
											}
										}
									}
								}
								JOINT RFinger0
								{
									OFFSET	-1.7730	-1.3420	1.3441
									CHANNELS 3 Xrotation Yrotation Zrotation
									JOINT RFinger01
									{
										OFFSET	-3.3012	-1.0843	2.4890
										CHANNELS 3 Xrotation Yrotation Zrotation
										JOINT RFinger02
										{
											OFFSET	-2.1738	-0.7778	1.5662
											CHANNELS 3 Xrotation Yrotation Zrotation
											End Site
											{
												OFFSET	-1.5985	-0.5503	1.0946
											}
										}
									}
								}
							}
						}
					}
				}
			}
		}
	}
	JOINT RThigh
	{
		OFFSET	-8.8955	3.7588	-0.7333
		CHANNELS 3 Xrotation Yrotation Zrotation
		JOINT RShin
		{
			OFFSET	-0.7118	-38.6915	0.0000
			CHANNELS 3 Xrotation Yrotation Zrotation
			JOINT RFoot
			{
				OFFSET	0.0000	-37.9926	0.0000
				CHANNELS 3 Xrotation Yrotation Zrotation
				JOINT RToe
				{
					OFFSET	0.0000	-4.1757	8.7320
					CHANNELS 3 Xrotation Yrotation Zrotation
					End Site
					{
						OFFSET	0.0000	0.0000	5.8580
					}
				}
			}
		}
	}
	JOINT LThigh
	{
		OFFSET	8.8954	3.7591	-0.7333
		CHANNELS 3 Xrotation Yrotation Zrotation
		JOINT LShin
		{
			OFFSET	0.7119	-38.6917	0.0000
			CHANNELS 3 Xrotation Yrotation Zrotation
			JOINT LFoot
			{
				OFFSET	0.0000	-37.9926	0.0000
				CHANNELS 3 Xrotation Yrotation Zrotation
				JOINT LToe
				{
					OFFSET	0.0000	-4.1757	8.7320
					CHANNELS 3 Xrotation Yrotation Zrotation
					End Site
					{
						OFFSET	0.0000	0.0000	5.8580
					}
				}
			}
		}
	}
}
MOTION
Frames:	6
Frame Time: 0.0333333000
	14.0418	79.9343	20.2026	-11.897930	9.570951	-1.317434	0.000000	0.000000	0.000000	7.313445	-1.298964	3.428958	24.597800	-2.553268	11.871190	0.000000	0.000000	0.000000	0.000000	0.000000	0.000000	0.000000	0.000000	-14.878650	13.539730	-19.826480	-57.758310	-2.243180	-35.397010	-0.019171	0.000000	0.000000	0.000000	0.000000	0.000000	0.000000	0.000000	0.000000	0.000000	0.000000	0.000000	0.000000	0.000000	0.000000	0.000000	0.000000	0.000000	0.000000	0.000000	0.000000	0.000000	0.000000	0.000000	0.000000	0.000000	0.000000	0.000000	0.000000	0.000000	0.000000	0.000000	0.000000	0.000000	0.000000	0.000000	0.000000	0.000000	0.000000	0.000000	0.000000	0.000000	0.000000	0.000000	0.000000	0.000000	0.000000	0.000000	0.000000	0.000000	0.000000	13.268270	-0.535670	7.005974	52.930910	-19.775090	26.848750	-0.064867	0.000000	0.000000	0.000000	0.000000	0.000000	0.000000	0.000000	0.000000	0.000000	0.000000	0.000000	0.000000	0.000000	0.000000	0.000000	0.000000	0.000000	0.000000	0.000000	0.000000	0.000000	0.000000	0.000000	0.000000	0.000000	0.000000	0.000000	0.000000	0.000000	0.000000	0.000000	0.000000	0.000000	0.000000	0.000000	0.000000	0.000000	0.000000	0.000000	0.000000	0.000000	0.000000	0.000000	0.000000	0.000000	0.000000	0.000000	0.000000	9.889866	-1.724811	8.329343	16.034400	-2.472347	0.666734	0.853729	-1.068706	-0.500273	-2.886523	0.000000	0.000000	-35.291880	15.899670	10.237520	65.760380	9.241233	-18.517590	8.259870	-10.211070	-4.006834	-0.000001	0.000000	0.000000
	13.6324	79.8617	19.9251	-10.928070	10.040990	-1.762220	0.000000	0.000000	0.000000	7.084541	-1.163313	3.532378	23.803970	-2.118248	12.136650	0.000000	0.000000	0.000000	0.000000	0.000000	0.000000	0.000000	0.000000	-14.946640	13.668990	-19.925900	-58.080190	-2.168247	-34.799590	-0.020065	0.000000	0.000000	0.000000	0.000000	0.000000	0.000000	0.000000	0.000000	0.000000	0.000000	0.000000	0.000000	0.000000	0.000000	0.000000	0.000000	0.000000	0.000000	0.000000	0.000000	0.000000	0.000000	0.000000	0.000000	0.000000	0.000000	0.000000	0.000000	0.000000	0.000000	0.000000	0.000000	0.000000	0.000000	0.000000	0.000000	0.000000	0.000000	0.000000	0.000000	0.000000	0.000000	0.000000	0.000000	0.000000	0.000000	0.000000	0.000000	0.000000	0.000000	13.142040	1.009342	7.757852	52.235720	-17.714220	27.945610	-0.072001	0.000000	0.000000	0.000000	0.000000	0.000000	0.000000	0.000000	0.000000	0.000000	0.000000	0.000000	0.000000	0.000000	0.000000	0.000000	0.000000	0.000000	0.000000	0.000000	0.000000	0.000000	0.000000	0.000000	0.000000	0.000000	0.000000	0.000000	0.000000	0.000000	0.000000	0.000000	0.000000	0.000000	0.000000	0.000000	0.000000	0.000000	0.000000	0.000000	0.000000	0.000000	0.000000	0.000000	0.000000	0.000000	0.000000	0.000000	0.000000	8.546103	-1.764812	8.671537	16.337410	-2.459324	0.666394	0.313025	-0.219328	-0.102093	-1.595898	0.000000	0.000000	-40.559410	18.640260	11.016860	71.823580	8.445109	-22.790330	9.781788	-9.933676	-3.750317	-0.000001	0.000000	0.000000
	13.3039	79.7179	19.7146	-9.845873	10.236520	-2.342016	0.000000	0.000000	0.000000	6.818190	-1.020676	3.643181	22.883840	-1.667841	12.426910	0.000000	0.000000	0.000000	0.000000	0.000000	0.000000	0.000000	0.000000	-14.961590	14.330570	-20.864690	-57.957700	-1.047876	-34.086420	-0.024686	0.000000	0.000000	0.000000	0.000000	0.000000	0.000000	0.000000	0.000000	0.000000	0.000000	0.000000	0.000000	0.000000	0.000000	0.000000	0.000000	0.000000	0.000000	0.000000	0.000000	0.000000	0.000000	0.000000	0.000000	0.000000	0.000000	0.000000	0.000000	0.000000	0.000000	0.000000	0.000000	0.000000	0.000000	0.000000	0.000000	0.000000	0.000000	0.000000	0.000000	0.000000	0.000000	0.000000	0.000000	0.000000	0.000000	0.000000	0.000000	0.000000	0.000000	13.007710	2.363529	8.929351	51.520530	-15.604150	28.087220	-0.082287	0.000000	0.000000	0.000000	0.000000	0.000000	0.000000	0.000000	0.000000	0.000000	0.000000	0.000000	0.000000	0.000000	0.000000	0.000000	0.000000	0.000000	0.000000	0.000000	0.000000	0.000000	0.000000	0.000000	0.000000	0.000000	0.000000	0.000000	0.000000	0.000000	0.000000	0.000000	0.000000	0.000000	0.000000	0.000000	0.000000	0.000000	0.000000	0.000000	0.000000	0.000000	0.000000	0.000000	0.000000	0.000000	0.000000	0.000000	0.000000	7.071184	-1.904987	9.182017	16.639790	-2.541433	0.694747	0.260891	-0.272054	-0.129925	-1.263086	0.000000	0.000000	-46.529470	20.917540	12.751020	79.701650	6.004659	-27.267930	7.773125	-7.721991	-3.064661	-0.000001	0.000000	0.000000
	12.9207	79.5247	19.7275	-9.186530	10.538540	-3.085437	0.000000	0.000000	0.000000	6.641480	-0.905101	3.805087	22.267770	-1.261400	12.903410	0.000000	0.000000	0.000000	0.000000	0.000000	0.000000	0.000000	0.000000	-14.926450	15.014070	-21.078870	-57.858130	-0.291069	-33.793780	-0.031240	0.000000	0.000000	0.000000	0.000000	0.000000	0.000000	0.000000	0.000000	0.000000	0.000000	0.000000	0.000000	0.000000	0.000000	0.000000	0.000000	0.000000	0.000000	0.000000	0.000000	0.000000	0.000000	0.000000	0.000000	0.000000	0.000000	0.000000	0.000000	0.000000	0.000000	0.000000	0.000000	0.000000	0.000000	0.000000	0.000000	0.000000	0.000000	0.000000	0.000000	0.000000	0.000000	0.000000	0.000000	0.000000	0.000000	0.000000	0.000000	0.000000	0.000000	13.043250	2.352688	9.345214	51.644680	-15.459170	27.513380	-0.062015	0.000000	0.000000	0.000000	0.000000	0.000000	0.000000	0.000000	0.000000	0.000000	0.000000	0.000000	0.000000	0.000000	0.000000	0.000000	0.000000	0.000000	0.000000	0.000000	0.000000	0.000000	0.000000	0.000000	0.000000	0.000000	0.000000	0.000000	0.000000	0.000000	0.000000	0.000000	0.000000	0.000000	0.000000	0.000000	0.000000	0.000000	0.000000	0.000000	0.000000	0.000000	0.000000	0.000000	0.000000	0.000000	0.000000	0.000000	0.000000	6.592284	-1.523375	10.342230	16.211380	-2.219650	0.589203	0.631037	-1.069827	-0.503442	-1.674805	0.000000	0.000000	-51.634830	22.588830	14.718080	87.044380	2.723083	-30.907780	4.298956	-5.204045	-2.265589	-0.000001	0.000000	0.000000
	12.5065	79.3774	19.9452	-9.186467	11.272110	-3.827387	0.000000	0.000000	0.000000	6.582401	-0.829695	3.989071	22.050050	-0.949118	13.473100	0.000000	0.000000	0.000000	0.000000	0.000000	0.000000	0.000000	0.000000	-14.868840	15.483290	-20.830930	-57.790710	0.035373	-34.073510	-0.036183	0.000000	0.000000	0.000000	0.000000	0.000000	0.000000	0.000000	0.000000	0.000000	0.000000	0.000000	0.000000	0.000000	0.000000	0.000000	0.000000	0.000000	0.000000	0.000000	0.000000	0.000000	0.000000	0.000000	0.000000	0.000000	0.000000	0.000000	0.000000	0.000000	0.000000	0.000000	0.000000	0.000000	0.000000	0.000000	0.000000	0.000000	0.000000	0.000000	0.000000	0.000000	0.000000	0.000000	0.000000	0.000000	0.000000	0.000000	0.000000	0.000000	0.000000	13.273780	1.235603	8.722435	52.709240	-17.195910	26.852380	-0.069125	0.000000	0.000000	0.000000	0.000000	0.000000	0.000000	0.000000	0.000000	0.000000	0.000000	0.000000	0.000000	0.000000	0.000000	0.000000	0.000000	0.000000	0.000000	0.000000	0.000000	0.000000	0.000000	0.000000	0.000000	0.000000	0.000000	0.000000	0.000000	0.000000	0.000000	0.000000	0.000000	0.000000	0.000000	0.000000	0.000000	0.000000	0.000000	0.000000	0.000000	0.000000	0.000000	0.000000	0.000000	0.000000	0.000000	0.000000	0.000000	7.779615	-1.046300	11.806650	14.024180	-1.921162	0.461008	1.131128	-1.927384	-0.897058	-1.692773	0.000000	0.000000	-54.749720	23.831320	15.687030	92.075480	-0.142800	-33.110260	1.890520	-3.735049	-1.707173	-0.000001	0.000000	0.000000
	12.2227	79.3049	20.2327	-9.616178	12.186590	-4.401658	0.000000	0.000000	0.000000	6.605600	-0.831049	4.112826	22.126920	-0.891777	13.880020	0.000000	0.000000	0.000000	0.000000	0.000000	0.000000	0.000000	0.000000	-14.831910	15.833900	-21.189100	-57.541510	0.603682	-34.348740	-0.040486	0.000000	0.000000	0.000000	0.000000	0.000000	0.000000	0.000000	0.000000	0.000000	0.000000	0.000000	0.000000	0.000000	0.000000	0.000000	0.000000	0.000000	0.000000	0.000000	0.000000	0.000000	0.000000	0.000000	0.000000	0.000000	0.000000	0.000000	0.000000	0.000000	0.000000	0.000000	0.000000	0.000000	0.000000	0.000000	0.000000	0.000000	0.000000	0.000000	0.000000	0.000000	0.000000	0.000000	0.000000	0.000000	0.000000	0.000000	0.000000	0.000000	0.000000	13.507820	0.374537	8.755672	53.766370	-18.345550	26.254350	-0.094202	0.000000	0.000000	0.000000	0.000000	0.000000	0.000000	0.000000	0.000000	0.000000	0.000000	0.000000	0.000000	0.000000	0.000000	0.000000	0.000000	0.000000	0.000000	0.000000	0.000000	0.000000	0.000000	0.000000	0.000000	0.000000	0.000000	0.000000	0.000000	0.000000	0.000000	0.000000	0.000000	0.000000	0.000000	0.000000	0.000000	0.000000	0.000000	0.000000	0.000000	0.000000	0.000000	0.000000	0.000000	0.000000	0.000000	0.000000	0.000000	9.665138	-0.706188	12.981440	11.006400	-1.800930	0.346763	1.848662	-2.190363	-1.006130	-1.364649	0.000000	0.000000	-56.273900	24.821360	15.560360	95.202970	-2.158844	-34.152400	0.812471	-3.040353	-1.426549	-0.000001	0.000000	0.000000
